<?xml version="1.0" encoding="utf-8"?>
<!-- Generator: Adobe Illustrator 19.0.0, SVG Export Plug-In . SVG Version: 6.00 Build 0)  -->
<svg version="1.1" id="Layer_1" xmlns="http://www.w3.org/2000/svg" xmlns:xlink="http://www.w3.org/1999/xlink" x="0px" y="0px"
	 viewBox="-365 261.9 129.3 39.1" style="enable-background:new -365 261.9 129.3 39.1;" xml:space="preserve">
<style type="text/css">
	.st0{display:none;}
	.st1{display:inline;fill:#FED136;}
	.st2{fill:#FFFFFF;}
</style>
<g id="Layer_1_1_" class="st0">
	<path class="st1" d="M-706.9,526.1c0.1,0.4,0.1,0.7,0.2,0.8c0,0.2,0.1,0.4,0.1,0.6c0,0.8-0.2,1.5-0.5,2.2c-0.3,0.6-0.8,1.1-1.4,1.4
		c-0.5-0.6-1.1-1.2-1.7-1.6c-0.7-0.5-1.5-0.8-2.3-1.1c-0.8-0.3-1.7-0.5-2.5-0.6c-0.8-0.1-1.7-0.2-2.5-0.2c-0.8,0-1.6,0.1-2.3,0.2
		c-0.7,0.1-1.3,0.3-1.9,0.5c-0.5,0.2-0.9,0.5-1.3,0.8c-0.3,0.3-0.5,0.7-0.5,1.1c0.1,0.6,0.5,1.2,1,1.6c0.6,0.6,1.3,1.1,2.1,1.6
		c0.8,0.5,1.7,1,2.7,1.5s2,1,3,1.4c1.2,0.6,2.2,1.1,3.1,1.6c0.8,0.4,1.5,1,2.2,1.6c0.6,0.6,1,1.3,1.3,2c0.3,0.8,0.4,1.7,0.3,2.6
		c0,1.2-0.2,2.3-0.6,3.4c-0.4,1-1,2-1.8,2.7c-0.8,0.8-1.7,1.4-2.8,1.8c-1.2,0.4-2.4,0.7-3.6,0.6c-1.4,0-2.8-0.2-4.2-0.6
		c-1.5-0.4-2.9-0.9-4.3-1.6c-1.2-0.6-2.4-1.4-3.3-2.4c-0.8-0.7-1.3-1.8-1.4-2.9c0-0.6,0.2-1.2,0.4-1.8c0.3-0.9,0.8-1.6,1.5-2.3
		c0.2,0.9,0.5,1.8,1.1,2.5c0.8,1.1,1.9,2,3.1,2.7c1.3,0.7,2.6,1.3,4,1.6c1.3,0.3,2.6,0.5,3.9,0.5c1.1,0,2.2-0.1,3.2-0.5
		c0.7-0.3,1.4-0.7,1.9-1.2c0.4-0.4,0.8-0.9,1-1.4c0.2-0.4,0.3-0.7,0.3-1.1c0-0.5-0.3-1-0.6-1.4c-0.5-0.5-1.1-0.9-1.7-1.3
		c-0.7-0.4-1.5-0.8-2.4-1.3s-1.9-0.9-2.9-1.3c-1.5-0.7-2.8-1.3-3.8-1.9c-0.9-0.5-1.8-1.1-2.6-1.8c-0.6-0.5-1.2-1.2-1.5-1.9
		c-0.3-0.7-0.5-1.5-0.5-2.3c0-1.3,0.4-2.7,1.2-3.8c0.9-1.2,2.1-2.2,3.5-2.7c0.8-0.3,1.6-0.6,2.4-0.7c0.8-0.1,1.7-0.2,2.5-0.2
		c1.5,0,3.1,0.2,4.6,0.6C-709.9,524.9-708.4,525.4-706.9,526.1z"/>
	<path class="st1" d="M-704.1,536.4c-0.2-0.3-0.3-0.6-0.3-0.9c-0.1-0.4-0.1-0.8-0.1-1.2c0.6,0.1,1.2,0.1,1.8,0.1h1.6
		c0.4-0.7,0.7-1.4,1.1-2.1s0.8-1.3,1.2-1.9c0.3-0.5,0.7-1,1.1-1.4c0.2-0.3,0.5-0.5,0.8-0.8c0.3,0,0.6,0,0.9,0.1
		c0.4,0.1,0.7,0.2,1.1,0.3c0.4,0.1,0.7,0.3,1,0.4c0.2,0.1,0.5,0.2,0.6,0.4c-0.7,0.9-1.3,1.7-1.8,2.5c-0.5,0.8-1.1,1.6-1.6,2.6h1.4
		c0.5,0,1,0,1.5-0.1c0.1,0.1,0.2,0.3,0.3,0.4c0.1,0.2,0.1,0.4,0.1,0.6c-1.4,0.5-2.8,0.7-4.2,0.7c-0.6,1.1-1.1,2.3-1.6,3.4
		s-0.9,2.2-1.2,3.3c-0.3,1-0.5,1.9-0.7,2.9c-0.2,0.8-0.3,1.7-0.3,2.5c0,1,0.4,1.6,1.2,1.7c0.7-0.1,1.4-0.3,2-0.5
		c0.6-0.2,1.2-0.6,1.7-1c0.1,0.2,0.2,0.3,0.2,0.5c-0.2,0.3-0.4,0.5-0.7,0.7c-0.4,0.3-0.7,0.6-1.1,0.8c-0.4,0.3-0.8,0.5-1.2,0.7
		c-0.3,0.1-0.6,0.3-0.8,0.3c-0.6,0-1.2-0.1-1.8-0.3c-0.6-0.2-1.1-0.5-1.6-0.9c-0.5-0.3-0.9-0.7-1.2-1.2c-0.3-0.4-0.4-0.8-0.5-1.3
		c0-0.7,0.1-1.4,0.2-2.1c0.1-0.9,0.4-1.8,0.6-2.8c0.3-1,0.6-2.1,1-3.2c0.4-1.1,0.8-2.2,1.2-3.3L-704.1,536.4L-704.1,536.4z"/>
	<path class="st1" d="M-681.5,535.6c0.3,0,0.6,0,0.8,0.1c0.3,0.1,0.6,0.2,0.9,0.3c0.2,0.1,0.4,0.2,0.6,0.4c0.2,0.1,0.3,0.3,0.3,0.4
		c-0.5,1-0.9,2-1.3,3s-0.7,2-1,2.9c-0.3,0.8-0.5,1.7-0.6,2.6c-0.1,0.7-0.2,1.4-0.2,2.1c0,0.6,0.1,1.1,0.2,1.6
		c0.1,0.4,0.4,0.7,0.7,0.9c-0.3,0.2-0.7,0.4-1.1,0.5c-0.4,0.1-0.8,0.2-1.2,0.2c-1.3,0-1.9-0.9-1.9-2.6c0.1-1.9,0.6-3.8,1.4-5.5
		c-0.5,1-1,2-1.6,3c-0.6,0.9-1.2,1.7-1.9,2.5c-0.6,0.7-1.2,1.3-2,1.9c-0.5,0.4-1.1,0.7-1.8,0.8c-0.9,0-1.7-0.5-2.1-1.2
		c-0.6-0.9-0.9-1.9-0.8-3c0-1.4,0.3-2.9,0.9-4.2c0.6-1.4,1.3-2.8,2.2-4.1c0.8-1.2,1.8-2.2,2.9-3.1c0.8-0.8,1.9-1.2,3-1.3
		c0.3,0.1,0.6,0.2,0.8,0.4c0.3,0.2,0.6,0.5,0.9,0.7c0.3,0.3,0.5,0.6,0.7,0.9c0.2,0.2,0.3,0.5,0.3,0.8c-1.1,0.2-2.1,0.6-2.9,1.3
		c-1,0.8-2,1.8-2.7,2.8c-0.8,1.1-1.5,2.3-2,3.5c-0.5,1.1-0.8,2.3-0.8,3.5c0,0.4,0.2,0.7,0.5,0.8c0.9-0.3,1.8-0.9,2.4-1.8
		c1.2-1.5,2.3-3.1,3.3-4.8l0.8-1.4c0.3-0.5,0.6-1.1,0.9-1.6l0.9-1.7C-682,536.7-681.8,536.2-681.5,535.6z"/>
	<path class="st1" d="M-677.9,549.2c0.1-0.7,0.3-1.6,0.6-2.7c0.3-1.1,0.6-2.3,1-3.6s0.8-2.5,1.3-3.8c0.4-1.3,0.9-2.4,1.3-3.4
		c0.2-0.6,0.5-1.2,0.8-1.7c0.2-0.4,0.5-0.7,0.8-1c0.3,0.1,0.7,0.1,1,0.3c0.3,0.1,0.7,0.3,1,0.4c0.3,0.2,0.6,0.3,0.9,0.5
		c0.2,0.1,0.4,0.3,0.6,0.5c-0.7,0.8-1.2,1.7-1.7,2.6c-0.5,1.2-1,2.4-1.4,3.6c1.3-1.1,2.4-2.2,3.4-3.3s1.9-2.2,2.7-3.5
		c0.2-0.1,0.5-0.2,0.7-0.2c0.3,0,0.7,0,1,0.2c0.3,0.1,0.5,0.2,0.6,0.4c-0.4,1.1-0.6,2.2-0.6,3.4c-0.1,0.8,0.1,1.6,0.5,2.3
		c-0.1,0.3-0.3,0.6-0.5,0.8c-0.3,0.4-0.6,0.8-1,1.1c-0.7-0.3-1.2-0.8-1.7-1.3c-0.5-0.6-0.9-1.2-1.1-1.9c-1,0.7-1.9,1.5-2.8,2.3
		c-0.8,0.7-1.4,1.6-2,2.5c-0.6,1-1.1,2-1.4,3.1c-0.4,1.2-0.8,2.6-1.1,4.2c-0.3,0-0.5-0.1-0.8-0.2c-0.3-0.1-0.6-0.3-0.9-0.5
		c-0.3-0.2-0.5-0.4-0.8-0.6C-677.7,549.7-677.8,549.5-677.9,549.2z"/>
	<path class="st1" d="M-660.7,536.4c-0.2-0.3-0.3-0.6-0.3-0.9c-0.1-0.4-0.1-0.8-0.1-1.2c0.6,0.1,1.2,0.1,1.8,0.1h1.6
		c0.4-0.7,0.7-1.4,1.1-2.1c0.4-0.7,0.8-1.3,1.2-1.9c0.3-0.5,0.7-1,1.1-1.4c0.2-0.3,0.5-0.6,0.8-0.8c0.3,0,0.6,0,0.9,0.1
		c0.4,0.1,0.7,0.2,1.1,0.3s0.7,0.3,1,0.4c0.2,0.1,0.5,0.2,0.6,0.4c-0.7,0.9-1.3,1.7-1.8,2.5c-0.5,0.8-1.1,1.6-1.6,2.6h1.4
		c0.5,0,1,0,1.5-0.1c0.1,0.1,0.2,0.3,0.3,0.4c0.1,0.2,0.1,0.4,0.1,0.6c-1.3,0.5-2.8,0.7-4.2,0.7c-0.6,1.1-1.1,2.3-1.6,3.4
		s-0.8,2.2-1.1,3.3c-0.3,1-0.6,1.9-0.8,2.9c-0.2,0.8-0.2,1.7-0.3,2.5c0,1,0.4,1.6,1.2,1.7c0.7-0.1,1.4-0.3,2-0.5
		c0.6-0.2,1.2-0.6,1.7-1c0.1,0.2,0.2,0.3,0.3,0.5c-0.2,0.3-0.5,0.5-0.7,0.7c-0.4,0.3-0.7,0.6-1.1,0.8c-0.4,0.3-0.8,0.5-1.2,0.7
		c-0.3,0.1-0.6,0.2-0.8,0.3c-0.6,0-1.2-0.1-1.8-0.4c-0.6-0.2-1.1-0.5-1.6-0.9c-0.5-0.3-0.9-0.7-1.2-1.2c-0.3-0.4-0.5-0.8-0.5-1.3
		c0-0.7,0.1-1.4,0.2-2.1c0.2-0.9,0.4-1.8,0.7-2.8s0.6-2.1,1-3.2s0.8-2.2,1.2-3.3h-2.1V536.4z"/>
	<path class="st1" d="M-617.4,530.4c0,1.4-0.4,2.8-1.2,3.9c-0.9,1.2-2,2.2-3.3,2.9c0.9,0.6,1.6,1.3,2.1,2.2c0.5,0.9,0.8,1.9,0.8,2.9
		c0,1.3-0.4,2.6-1.1,3.8c-0.8,1.3-1.9,2.4-3.1,3.3c-1.3,1-2.8,1.8-4.4,2.3c-1.6,0.6-3.3,0.9-5,0.9s-3.3-0.3-4.8-1
		c-1.3-0.7-2.5-1.7-3.2-3c0.2-0.7,0.5-1.6,0.9-2.6c0.4-1,0.8-2.2,1.3-3.3c0.5-1.2,1-2.3,1.4-3.5s0.9-2.2,1.4-3.1
		c0.9-2,1.7-3.7,2.4-5c0.6-1.1,1.3-2.2,2-3.1c-1.2,0.4-2.4,0.8-3.5,1.4c-0.8,0.4-1.6,0.9-2.3,1.5c-0.2-0.2-0.5-0.4-0.7-0.6
		c-0.2-0.3-0.4-0.6-0.6-0.9c-0.2-0.3-0.4-0.7-0.5-1.1c-0.1-0.3-0.2-0.6-0.2-0.9c0.7-0.5,1.6-0.9,2.4-1.2c1-0.4,2.1-0.7,3.2-1
		c1.2-0.3,2.4-0.5,3.5-0.7c1.2-0.2,2.3-0.2,3.5-0.2c2.3-0.1,4.7,0.5,6.7,1.7C-618.2,526.8-617.3,528.6-617.4,530.4z M-630.9,538.9
		c-0.5-0.2-0.9-0.6-1.2-1c-0.6,1.2-1.1,2.4-1.5,3.5c-0.5,1.2-0.9,2.2-1.3,3.2c-0.4,1-0.7,1.9-0.9,2.6c-0.2,0.5-0.3,1.1-0.4,1.6
		c0.4,0.2,0.8,0.3,1.2,0.4c0.6,0.1,1.1,0.2,1.7,0.2c1.6,0,3.1-0.2,4.6-0.7c1.4-0.4,2.7-1.1,3.9-1.9c1-0.7,1.9-1.6,2.7-2.6
		c0.6-0.9,1-2,1-3.1c0.1-1.4-0.7-2.8-2-3.4c-2,0.8-4.1,1.2-6.2,1.1h-0.8C-630.4,539-630.7,538.9-630.9,538.9z M-624,526.6
		c-0.5,0-1,0-1.6,0.1c-0.6,0.1-1.1,0.1-1.8,0.3c0.1,0.1,0.2,0.2,0.2,0.3c0,0.1,0.1,0.2,0.2,0.3c-0.3,0.4-0.5,0.8-0.8,1.2
		c-0.3,0.5-0.6,1.2-1,1.9c-0.4,0.7-0.8,1.5-1.2,2.4s-0.8,1.8-1.3,2.7c0.5-0.1,1-0.2,1.5-0.2c0.6-0.1,1.1-0.1,1.7-0.1
		c0.3,0,0.6,0,0.9,0s0.6,0.1,0.9,0.1c1-0.2,2.1-0.4,3.1-0.8c0.8-0.3,1.6-0.8,2.4-1.3c0.6-0.4,1.1-1,1.5-1.6c0.3-0.6,0.5-1.2,0.5-1.9
		c0.1-1-0.5-2-1.3-2.6C-621.3,526.8-622.6,526.5-624,526.6z"/>
	<path class="st1" d="M-612.5,551.2c-1.3-0.1-2.4-0.7-3.2-1.8c-0.8-1.2-1.3-2.6-1.2-4c0-1,0.1-2,0.4-2.9c0.3-1,0.7-2,1.2-3
		s1.1-1.9,1.8-2.7s1.4-1.6,2.3-2.2c1-0.9,2.3-1.4,3.6-1.5c1,0.6,1.7,1.5,2.2,2.5h0.3h0.3c1.3,0,1.9,1.1,1.9,3.3
		c0,1.4-0.2,2.9-0.7,4.2c-0.5,1.3-1.1,2.5-2,3.6c-0.9,1.1-1.9,2-3.1,2.8C-609.7,550.3-611.1,550.9-612.5,551.2z M-610.7,540
		c-0.4,0.6-0.8,1.2-1.1,1.8c-0.3,0.6-0.7,1.3-0.9,1.9c-0.2,0.6-0.4,1.2-0.6,1.9c-0.1,0.5-0.2,1.1-0.2,1.6c0,0.6,0.1,1.1,0.3,1.6
		s0.4,0.8,0.6,0.9c1.1-0.2,2.1-0.7,2.9-1.3c0.9-0.7,1.7-1.5,2.3-2.4c0.7-1,1.2-2.1,1.5-3.3c0.4-1.3,0.6-2.6,0.6-3.9
		c0-0.5,0-1-0.1-1.5c-0.1-0.3-0.2-0.6-0.3-0.9c-1,0.3-2,0.8-2.8,1.5C-609.3,538.5-610,539.3-610.7,540z"/>
	<path class="st1" d="M-596.9,551.2c-1.3-0.1-2.4-0.7-3.2-1.8c-0.9-1.2-1.3-2.6-1.2-4c0-1,0.1-2,0.4-2.9c0.3-1,0.7-2,1.2-3
		s1.1-1.9,1.8-2.7c0.7-0.8,1.4-1.6,2.3-2.2c1-0.9,2.3-1.4,3.6-1.5c1,0.6,1.7,1.5,2.2,2.5h0.3h0.3c1.3,0,1.9,1.1,1.9,3.3
		c0,1.4-0.2,2.9-0.7,4.2c-0.5,1.3-1.1,2.5-2,3.6c-0.9,1.1-1.9,2-3.1,2.8C-594.1,550.3-595.5,550.9-596.9,551.2z M-595,540
		c-0.4,0.6-0.8,1.2-1.1,1.8c-0.3,0.6-0.7,1.3-0.9,1.9c-0.2,0.6-0.4,1.2-0.6,1.9c-0.1,0.5-0.2,1.1-0.2,1.6c0,0.6,0.1,1.1,0.3,1.6
		s0.4,0.8,0.6,0.9c1.1-0.2,2-0.7,2.9-1.3c0.9-0.7,1.7-1.5,2.3-2.4c0.7-1,1.2-2.1,1.5-3.3c0.4-1.3,0.6-2.6,0.6-3.9c0-0.5,0-1-0.1-1.5
		c-0.1-0.3-0.2-0.6-0.4-0.9c-1,0.3-2,0.8-2.8,1.5C-593.7,538.6-594.4,539.3-595,540z"/>
	<path class="st1" d="M-583.7,536.4c-0.2-0.3-0.3-0.6-0.3-0.9c-0.1-0.4-0.1-0.8-0.1-1.2c0.6,0.1,1.2,0.1,1.8,0.1h1.6
		c0.4-0.7,0.7-1.4,1.1-2.1s0.8-1.3,1.2-1.9c0.3-0.5,0.7-1,1.1-1.4c0.2-0.3,0.5-0.6,0.8-0.8c0.3,0,0.6,0,0.9,0.1
		c0.4,0.1,0.7,0.2,1.1,0.3s0.7,0.3,1,0.4c0.2,0.1,0.5,0.2,0.6,0.4c-0.7,0.9-1.3,1.7-1.8,2.5c-0.5,0.8-1.1,1.6-1.6,2.6h1.4
		c0.5,0,1,0,1.5-0.1c0.1,0.1,0.2,0.3,0.3,0.4c0.1,0.2,0.1,0.4,0.1,0.6c-1.4,0.5-2.8,0.7-4.2,0.7c-0.6,1.1-1.1,2.3-1.6,3.4
		s-0.9,2.2-1.2,3.3c-0.3,1-0.5,1.9-0.7,2.9c-0.2,0.8-0.3,1.7-0.3,2.5c0,1,0.4,1.6,1.2,1.7c0.7-0.1,1.4-0.3,2-0.5
		c0.6-0.2,1.2-0.6,1.7-1c0.1,0.2,0.2,0.3,0.3,0.5c-0.2,0.3-0.5,0.5-0.7,0.7c-0.4,0.3-0.7,0.6-1.1,0.8c-0.4,0.3-0.8,0.5-1.2,0.7
		c-0.3,0.1-0.6,0.2-0.9,0.3c-0.6,0-1.2-0.1-1.8-0.3c-0.6-0.2-1.1-0.5-1.6-0.9c-0.5-0.3-0.9-0.7-1.2-1.2c-0.3-0.4-0.4-0.8-0.5-1.3
		c0-0.7,0.1-1.4,0.2-2.1c0.1-0.9,0.4-1.8,0.6-2.8c0.3-1,0.6-2.1,1-3.2c0.4-1.1,0.8-2.2,1.2-3.3L-583.7,536.4L-583.7,536.4z"/>
	<path class="st1" d="M-561.1,535.8c0,0.5-0.1,0.9-0.2,1.4c-0.1,0.4-0.3,0.9-0.5,1.3c-0.2,0.4-0.4,0.7-0.6,1
		c-0.1,0.2-0.4,0.4-0.6,0.4c-0.3,0-0.4-0.2-0.5-0.5c0-0.1,0-0.2,0.1-0.3c0.1-0.1,0.1-0.3,0.2-0.5s0.1-0.4,0.2-0.6
		c0.1-0.2,0.1-0.3,0.1-0.5c0-0.3-0.1-0.6-0.2-0.8c-0.1-0.2-0.4-0.3-0.6-0.3c-0.9,0-1.7,0.6-2.2,1.8c-0.6,1.7-0.8,3.4-0.7,5.2
		c0,0.1,0,0.3,0,0.4h2.5c0,0.1,0,0.2,0,0.3c0,0.2,0,0.3-0.1,0.5l-1.3,0.3c-0.2,0.1-0.5,0.1-0.7,0.2c-0.1,0-0.2,0.1-0.3,0.2
		c0,0.1-0.1,0.2-0.1,0.3c0,0.2,0,0.4,0,0.6c0,0.2,0,0.4,0,0.7c0.1,1.7-0.5,3.4-1.6,4.8c-1.2,1.2-2.8,2-4.5,2.1c-0.3,0-0.7-0.1-1-0.3
		c-0.4-0.2-0.7-0.4-1-0.6c-0.3-0.3-0.6-0.5-0.8-0.9c-0.2-0.3-0.4-0.6-0.5-1c0-0.9,0.2-1.8,0.6-2.6c0.4-0.8,0.9-1.5,1.5-2.2
		c0.7-0.6,1.4-1.2,2.3-1.5c0.9-0.4,1.9-0.6,2.9-0.6c0-0.6-0.1-1.2-0.2-1.7c-0.1-0.6-0.2-1.1-0.4-1.6c-0.2-0.5-0.3-1.1-0.4-1.6
		c-0.1-0.5-0.2-1-0.2-1.5c0-0.7,0.1-1.3,0.4-1.9c0.2-0.6,0.6-1.2,1-1.7c0.4-0.5,0.9-1,1.5-1.4c0.5-0.4,1.1-0.6,1.8-0.8
		c0.4,0.1,0.7,0.4,1,0.6c0.5,0.4,0.9,0.7,1.3,1.1s0.8,0.8,1.1,1.3C-561.5,535-561.3,535.4-561.1,535.8z M-572.8,551.9
		c0.6-0.2,1.1-0.6,1.6-1c1-0.9,1.8-2,2.2-3.3c0.2-0.6,0.3-1.2,0.3-1.9c-0.6,0.1-1.1,0.3-1.6,0.7c-1.1,0.7-2.1,1.7-2.8,2.9
		c-0.3,0.4-0.5,0.9-0.5,1.4C-573.5,551.2-573.2,551.7-572.8,551.9z"/>
	<path class="st1" d="M-559,536.4c-0.2-0.3-0.3-0.6-0.3-0.9c-0.1-0.4-0.1-0.8-0.1-1.2c0.6,0.1,1.2,0.1,1.8,0.1h1.6
		c0.4-0.7,0.7-1.4,1.1-2.1c0.4-0.7,0.8-1.3,1.2-1.9c0.3-0.5,0.7-1,1.1-1.4c0.2-0.3,0.5-0.6,0.8-0.8c0.3,0,0.6,0,0.9,0.1
		c0.4,0.1,0.7,0.2,1.1,0.3s0.7,0.3,1,0.4c0.2,0.1,0.5,0.2,0.6,0.4c-0.7,0.9-1.3,1.7-1.8,2.5c-0.5,0.8-1.1,1.6-1.6,2.6h1.4
		c0.5,0,1,0,1.5-0.1c0.1,0.1,0.2,0.3,0.3,0.4c0.1,0.2,0.1,0.4,0.1,0.6c-1.4,0.5-2.8,0.7-4.2,0.7c-0.6,1.1-1.1,2.3-1.6,3.4
		s-0.9,2.2-1.2,3.3c-0.3,1-0.5,1.9-0.7,2.9c-0.2,0.8-0.3,1.7-0.3,2.5c0,1,0.4,1.6,1.2,1.7c0.7-0.1,1.4-0.3,2-0.5
		c0.6-0.2,1.2-0.6,1.7-1c0.1,0.2,0.2,0.3,0.3,0.5c-0.2,0.3-0.5,0.5-0.7,0.7c-0.4,0.3-0.7,0.6-1.1,0.8c-0.4,0.3-0.8,0.5-1.2,0.7
		c-0.3,0.1-0.6,0.2-0.9,0.3c-0.6,0-1.2-0.1-1.8-0.3c-0.6-0.2-1.1-0.5-1.6-0.9c-0.5-0.3-0.9-0.7-1.2-1.2c-0.3-0.4-0.4-0.8-0.5-1.3
		c0-0.7,0.1-1.4,0.2-2.1c0.1-0.9,0.4-1.8,0.6-2.8c0.3-1,0.6-2.1,1-3.2c0.4-1.1,0.8-2.2,1.2-3.3L-559,536.4L-559,536.4z"/>
	<path class="st1" d="M-549.4,549.2c0.1-0.7,0.3-1.6,0.6-2.7c0.3-1.1,0.6-2.3,1-3.6s0.8-2.5,1.3-3.8c0.4-1.3,0.9-2.4,1.3-3.4
		c0.2-0.6,0.5-1.2,0.8-1.7c0.2-0.4,0.5-0.7,0.8-1c0.3,0.1,0.7,0.1,1,0.3c0.3,0.1,0.7,0.3,1,0.4c0.3,0.2,0.6,0.3,0.9,0.5
		c0.2,0.1,0.4,0.3,0.6,0.5c-0.7,0.8-1.2,1.7-1.7,2.6c-0.5,1.2-1,2.4-1.4,3.6c1.3-1.1,2.4-2.2,3.4-3.3s1.9-2.2,2.8-3.5
		c0.2-0.1,0.5-0.2,0.7-0.2c0.3,0,0.6,0.1,0.9,0.2s0.5,0.2,0.6,0.4c-0.4,1.1-0.6,2.2-0.6,3.4c0,0.8,0.1,1.6,0.5,2.3
		c-0.1,0.3-0.3,0.6-0.5,0.8c-0.3,0.4-0.6,0.8-1,1.1c-1.3-0.7-2.3-1.9-2.8-3.3c-1,0.7-1.9,1.5-2.8,2.3c-0.8,0.7-1.4,1.6-2,2.5
		c-0.6,1-1.1,2-1.4,3.1c-0.4,1.2-0.8,2.6-1.1,4.2c-0.3,0-0.5-0.1-0.8-0.2c-0.6-0.3-1.2-0.6-1.7-1.1
		C-549.2,549.7-549.3,549.5-549.4,549.2z"/>
	<path class="st1" d="M-522.1,535.6c0.3,0,0.6,0,0.8,0.1c0.3,0.1,0.6,0.2,0.9,0.3c0.2,0.1,0.4,0.2,0.6,0.4c0.2,0.1,0.3,0.3,0.3,0.4
		c-0.5,1-0.9,2-1.3,3c-0.4,1-0.7,2-1,2.9c-0.3,0.8-0.5,1.7-0.6,2.6c-0.1,0.7-0.2,1.4-0.2,2.1c0,0.6,0.1,1.1,0.2,1.6
		c0.1,0.4,0.4,0.7,0.7,0.9c-0.3,0.2-0.7,0.4-1.1,0.5c-0.4,0.1-0.8,0.2-1.2,0.2c-1.3,0-1.9-0.9-1.9-2.6c0.1-1.9,0.6-3.8,1.3-5.5
		c-0.5,1-1,2-1.6,3c-0.6,0.9-1.2,1.7-1.9,2.5c-0.6,0.7-1.2,1.3-2,1.9c-0.5,0.4-1.1,0.7-1.8,0.8c-0.9,0-1.7-0.5-2.1-1.2
		c-0.6-0.9-0.9-1.9-0.8-3c0-1.4,0.3-2.9,0.9-4.2c0.6-1.4,1.3-2.8,2.2-4.1c0.8-1.2,1.8-2.2,2.9-3.1c0.8-0.8,1.9-1.2,3-1.3
		c0.3,0.1,0.6,0.2,0.8,0.4c0.3,0.2,0.6,0.5,0.9,0.7c0.3,0.3,0.5,0.6,0.7,0.9c0.2,0.2,0.3,0.5,0.3,0.8c-1.1,0.2-2.1,0.6-2.9,1.3
		c-1,0.8-2,1.8-2.7,2.8c-0.8,1.1-1.5,2.3-2,3.5c-0.5,1.1-0.8,2.3-0.8,3.5c0,0.4,0.2,0.7,0.5,0.8c0.9-0.3,1.8-0.9,2.4-1.8
		c1.2-1.5,2.3-3.1,3.3-4.8l0.8-1.4c0.3-0.5,0.6-1.1,0.9-1.6l0.9-1.7C-522.7,536.7-522.4,536.2-522.1,535.6z"/>
	<path class="st1" d="M-520.3,561.7c-0.3-0.1-0.5-0.5-0.6-1.1c-0.1-0.4-0.2-0.7-0.2-1.1c0-0.4-0.1-0.9-0.1-1.5c0-0.7,0.1-1.3,0.2-2
		c0.2-0.9,0.4-1.8,0.7-2.9c0.3-1.1,0.6-2.3,1.1-3.5c0.4-1.3,0.9-2.5,1.4-3.8c0.6-1.6,1.2-3,1.7-4.2s0.9-2.2,1.2-3.1
		c0.3-0.9,0.6-1.6,0.8-2.2c0.2-0.6,0.4-1,0.5-1.5c0.1-0.3,0.3-0.7,0.4-1c0.2-0.4,0.4-0.8,0.7-1.2c0.2-0.4,0.5-0.8,0.8-1.2
		c0.2-0.3,0.4-0.6,0.7-0.8c0.8,0.1,1.6,0.3,2.3,0.6c0.5,0.2,1,0.5,1.4,0.9c-0.4,0.4-0.8,0.9-1.1,1.4c-0.5,0.7-0.9,1.4-1.2,2.1
		c-0.4,0.8-0.8,1.6-1.1,2.4c-0.3,0.7-0.5,1.4-0.7,2.1c0.3-0.5,0.6-0.9,0.9-1.3c0.4-0.5,1-1.1,1.7-1.9s1.6-1.5,2.5-2.1
		c0.6-0.4,1.3-0.7,2-0.7c0.8,0,1.6,0.2,2.2,0.7c0.6,0.5,0.9,1.2,0.9,1.9c0,1.7-0.3,3.4-0.9,5.1c-0.5,1.6-1.4,3.2-2.4,4.5
		c-0.4,0.5-0.9,1-1.4,1.4c-0.5,0.5-1.1,0.9-1.7,1.3c-0.5,0.3-1.1,0.6-1.7,0.9c-0.5,0.2-1,0.3-1.5,0.3c-0.4,0-0.8-0.1-1.1-0.3
		c-0.3-0.1-0.5-0.4-0.6-0.6c1-0.6,1.9-1.4,2.7-2.3c0.9-1,1.7-2.1,2.4-3.3c0.8-1.3,1.4-2.7,1.9-4.1c0.5-1.4,1-2.9,1.3-4.5
		c-0.9,0.4-1.7,1-2.4,1.5c-0.8,0.6-1.5,1.4-2.2,2.2c-0.9,1-1.5,1.9-2,2.5c-0.5,0.6-0.9,1.2-1.2,1.6c-0.3,0.4-0.6,0.8-0.8,1.3
		c-0.2,0.4-0.4,0.9-0.6,1.4c-0.3,0.8-0.7,1.8-1.1,3c-0.4,1.2-0.9,2.6-1.4,4.2c-0.5,1.5-0.9,3.2-1.4,4.9s-0.9,3.5-1.3,5.2
		c-0.3-0.1-0.5-0.3-0.7-0.6c-0.2-0.2-0.3-0.4-0.4-0.5C-520,561.8-520.1,561.7-520.3,561.7z"/>
</g>
<g id="XMLID_83_">
	<g id="XMLID_90_">
		<path id="XMLID_103_" class="st2" d="M-348.9,272.6c0.4-1.2,1-2.4,1.9-3.4c0.9-1,1.9-1.9,3.2-2.6c1.1-0.6,2.3-1,3.7-1.2
			c1.3-0.2,2.6-0.1,3.9,0.3c1.3,0.4,2.3,1.2,3,2.2c0.6,1,1,2.1,0.9,3.2c0,1.1-0.3,2.2-1,3c-0.7,0.9-1.5,1.7-2.5,2.3
			c-1,0.7-2.2,1.2-3.4,1.6c-1.2,0.4-2.4,0.7-3.5,1c0.4,0.5,0.9,1,1.3,1.4c0.5,0.4,1,0.9,1.5,1.3c0.6,0.5,1.2,1,1.6,1.6
			s0.9,1.2,1.2,1.8c0.8,1.4,1.1,2.9,1,4.4c-0.1,1.6-0.7,3-1.8,4.2c-0.8,0.9-1.8,1.7-2.9,2.3c-1.1,0.6-2.4,1-3.6,1.2
			c-1.2,0.2-2.4,0.3-3.6,0.3c-1.3,0-2.4-0.3-3.6-0.7c-1.3-0.4-2.3-1.1-3.2-2c-0.9-0.9-1.3-1.9-1.5-3.1c-0.1-1.2,0.1-2.3,0.7-3.4
			c0.6-1.1,1.5-2,2.5-2.7c0.5-0.3,1.1-0.6,1.7-0.9c0.6-0.3,1.2-0.5,1.8-0.7c0.1,0,0.3-0.1,0.4-0.1c0.1,0,0.3,0,0.4,0.1
			c0.2,0.1,0.3,0.3,0.2,0.6c0,0.1-0.2,0.2-0.4,0.3c-0.2,0.1-0.3,0.1-0.5,0.2c-0.6,0.3-1.1,0.6-1.6,1c-0.5,0.4-1,0.8-1.3,1.2
			c-0.4,0.4-0.7,0.9-1,1.5c-0.2,0.5-0.4,1.1-0.4,1.7c0,0.8,0.2,1.5,0.6,2c0.4,0.5,0.9,0.9,1.6,1.2c0.7,0.3,1.4,0.4,2.3,0.5
			c0.8,0,1.7,0,2.5-0.1c0.8-0.1,1.6-0.4,2.4-0.7c0.7-0.3,1.4-0.7,1.9-1.1c1-0.9,1.5-1.8,1.6-2.9c0-1.1-0.3-2.1-1-3.1
			c-0.2-0.3-0.5-0.6-0.8-0.9c-0.3-0.3-0.6-0.6-0.9-0.8c-0.4-0.3-0.8-0.7-1.2-1s-0.7-0.7-1.1-1.1c-0.9-1-1.6-1.9-2.1-2.9
			c-0.7,0-1.4-0.1-2.1-0.1c-0.7-0.1-1.4-0.2-2.1-0.4c-1.3-0.4-2.4-0.9-3.5-1.6c-1-0.7-1.8-1.6-2.4-2.6c-0.6-1-0.9-2.1-0.9-3.3
			c0-1.2,0.3-2.3,0.9-3.3c0.3-0.4,0.6-0.8,1-1.1c0.4-0.3,0.9-0.5,1.4-0.6c0.5,0,1,0,1.5,0.3c0.4,0.2,0.8,0.5,1,0.9
			c0.2,0.4,0.3,0.9,0.2,1.2s-0.3,0.8-0.6,1.2c-0.6,1-0.8,2.1-0.5,3.2c0.3,1.1,0.9,2.1,1.9,2.9c1,0.8,2.2,1.3,3.4,1.6
			C-349.4,276-349.4,274.3-348.9,272.6z M-344.8,274.2c0,1,0.2,1.9,0.6,2.7c0,0.1,0.1,0.2,0.2,0.3c0.1,0.1,0.1,0.2,0.2,0.3
			c0,0.1,0.1,0.2,0.1,0.2s0.1,0,0.2,0c0.1,0,0.2,0,0.3-0.1c0.3,0,0.5-0.1,0.7-0.1c0.2,0,0.5-0.1,0.7-0.2c1.3-0.3,2.5-0.8,3.7-1.4
			c1.2-0.6,2.2-1.4,2.9-2.4c0.3-0.4,0.5-0.8,0.7-1.3c0.1-0.5,0.2-1,0.2-1.4c0-0.5-0.2-0.9-0.4-1.4c-0.2-0.4-0.5-0.8-1-1.2
			c-0.6-0.4-1.2-0.7-1.8-0.8c-0.6-0.1-1.3,0-1.9,0.1c-0.6,0.1-1.3,0.4-1.9,0.7c-0.6,0.3-1.1,0.7-1.5,1.1c-0.7,0.6-1.2,1.4-1.5,2.2
			C-344.5,272.5-344.7,273.4-344.8,274.2z"/>
		<path id="XMLID_100_" class="st2" d="M-332.2,297.9c-0.9-0.2-1.5-0.7-1.7-1.4c-0.1-0.2-0.1-0.5-0.1-0.7c0-0.2,0.1-0.5,0.1-0.8
			c0-0.4,0.1-0.8,0.2-1.2c0.1-0.4,0.2-0.8,0.3-1.2c0.6-3,1.3-5.9,2.2-8.8c0.6-2.2,1.2-4.3,1.9-6.4c0.7-2.1,1.5-4.2,2.4-6.3
			c0.4-1,1-2.1,1.7-3.1c0.7-1,1.5-1.9,2.6-2.6c0.4-0.3,0.9-0.5,1.4-0.7c0.5-0.2,1.1-0.3,1.6-0.2c0.7,0.1,1.2,0.3,1.5,0.8
			c0.3,0.4,0.4,0.9,0.4,1.5c0,1-0.1,1.9-0.4,2.9c-0.3,0.9-0.6,1.9-1,2.8c-0.4,1-0.9,2-1.3,3c-0.5,1-1,2-1.6,2.9
			c-0.6,1-1.3,2.1-2,3.1c-0.7,1-1.3,2.1-1.8,3.2c-0.3,0.6-0.5,1.3-0.7,2c-0.1,0.7-0.3,1.3-0.5,2c0.5-1,1-1.9,1.6-2.8
			c0.6-0.9,1.2-1.8,1.9-2.7c0.4-0.5,0.7-1,1.2-1.4c0.4-0.4,0.9-0.9,1.3-1.2c0.5-0.4,1-0.7,1.6-1c0.6-0.3,1.2-0.4,1.9-0.5
			c0.5-0.1,1-0.1,1.5,0c0.5,0,0.9,0.2,1.3,0.4c0.5,0.3,0.9,0.7,1.2,1.1c0.3,0.4,0.5,0.9,0.5,1.5c0.1,0.6,0,1.1-0.1,1.7
			c-0.1,0.6-0.3,1.1-0.5,1.7c-0.2,0.6-0.5,1.1-0.7,1.6s-0.5,1.1-0.8,1.6l-1.7,3.2c-0.2,0.5-0.5,1-0.7,1.5c-0.2,0.5-0.4,1-0.4,1.6
			c0.6-0.1,1.2-0.3,1.7-0.7c0.5-0.3,1-0.7,1.5-1c0.5-0.4,1-0.7,1.5-1.2c0.5-0.4,0.9-0.8,1.3-1.2c0.6-0.6,1.2-1.2,1.8-1.8
			c0.1-0.1,0.3-0.2,0.5-0.2s0.3,0.1,0.3,0.3c0,0.1,0,0.3-0.1,0.4c-0.1,0.1-0.2,0.3-0.3,0.4c-0.6,1-1.3,2.1-2.1,3.1
			c-0.8,1-1.7,1.9-2.7,2.8c-0.4,0.3-0.8,0.6-1.3,0.9c-0.5,0.3-1.1,0.5-1.6,0.7c-0.6,0.1-1.1,0.2-1.6,0.1c-0.5-0.1-1-0.3-1.5-0.8
			c-0.4-0.4-0.6-0.9-0.7-1.4s-0.1-1.1,0-1.6c0-0.6,0.1-1.2,0.3-1.7c0.1-0.6,0.3-1.1,0.5-1.7c0.3-1.2,0.7-2.3,1.1-3.4
			c0.4-1.1,0.7-2.2,1-3.4c-1.2,0.3-2.3,0.8-3.2,1.6c-0.9,0.7-1.7,1.5-2.5,2.4c-0.8,0.9-1.5,1.8-2.1,2.7c-0.7,0.9-1.3,1.9-1.8,2.9
			c-0.2,0.3-0.3,0.6-0.4,0.9c-0.1,0.3-0.2,0.6-0.3,0.9l-0.4,1.2c-0.1,0.2-0.1,0.5-0.2,0.7c-0.1,0.2-0.2,0.5-0.4,0.7
			c-0.3,0.3-0.6,0.5-1.1,0.6C-331.3,298-331.8,298-332.2,297.9z M-324.3,277.3c0.8-0.9,1.5-1.8,2.1-2.8c0.6-1,1.1-2,1.6-3
			c0.2-0.4,0.4-0.8,0.5-1.2c0.1-0.4,0.3-0.8,0.4-1.2c0.1-0.6,0.2-1.1,0.2-1.6c0-0.3,0-0.5-0.1-0.8c0,0,0-0.1-0.1-0.3
			c-0.1-0.1-0.1-0.2-0.2-0.2c0,0,0,0,0.1,0.1c0,0,0,0,0,0.1c-0.2,0.1-0.4,0.3-0.5,0.4c-0.2,0.2-0.4,0.5-0.6,0.8
			c-0.1,0.3-0.3,0.6-0.4,0.9l-1,2.5c-0.3,0.8-0.6,1.6-0.8,2.3c-0.2,0.8-0.4,1.6-0.6,2.4L-324.3,277.3z"/>
		<path id="XMLID_96_" class="st2" d="M-304.8,280.9c0.7-0.5,1.5-1,2.4-1.4c0.9-0.4,1.8-0.5,2.8-0.4c0.2,0,0.4,0.1,0.6,0.1
			c0.2,0.1,0.4,0.1,0.6,0.3c0.1,0.1,0.1,0.1,0.2,0.2c0.1,0.1,0.1,0.1,0.2,0.2c0.1,0.1,0.1,0.1,0.1,0.1c0,0,0.1,0,0.2,0l0.4-0.1
			c0.5-0.1,1-0.1,1.5,0s1,0.2,1.4,0.4c0.4,0.3,0.8,0.6,1,1c0.2,0.4,0.4,0.8,0.5,1.2s0.2,0.9,0.2,1.3s0,0.9-0.1,1.3
			c-0.1,0.9-0.3,1.8-0.6,2.7c-0.3,0.9-0.7,1.8-1.2,2.6c0.9-0.1,1.8-0.4,2.6-0.8c0.8-0.4,1.5-0.9,2.1-1.5c0.1-0.1,0.3-0.2,0.4-0.4
			c0.1-0.1,0.3-0.2,0.5-0.3c0.2,0,0.3,0,0.5,0.1s0.1,0.2,0.1,0.4c0,0.2-0.1,0.3-0.3,0.5c-0.2,0.2-0.3,0.3-0.4,0.5
			c-0.1,0.2-0.3,0.3-0.4,0.4c-0.1,0.1-0.3,0.3-0.5,0.4c-0.6,0.6-1.2,1-2,1.5s-1.5,0.7-2.4,0.9c-0.2,0-0.4,0.1-0.7,0.1
			c-0.2,0-0.4,0-0.7,0c-0.1,0.2-0.2,0.3-0.3,0.4c-0.1,0.1-0.2,0.3-0.3,0.4c-0.3,0.3-0.5,0.6-0.8,0.9s-0.6,0.6-0.9,0.9
			c-0.8,0.7-1.8,1.3-2.8,1.8c-1,0.4-2.2,0.7-3.4,0.7c-1.4,0-2.6-0.4-3.5-1.1c-0.9-0.7-1.6-1.6-1.9-2.8c-0.3-1.2-0.4-2.3-0.2-3.5
			c0.2-1.2,0.5-2.3,1-3.4c0.4-1.1,1-2.2,1.7-3.2C-306.7,282.6-305.9,281.7-304.8,280.9z M-302.9,284.9c-0.6,0.6-1.2,1.3-1.7,2.1
			c-0.5,0.7-0.9,1.5-1.2,2.3c-0.1,0.4-0.3,0.7-0.4,1.1c-0.1,0.4-0.2,0.8-0.3,1.2c-0.1,0.4-0.1,0.8-0.1,1.2c0,0.4,0.1,0.8,0.3,1.2
			c0.1,0.3,0.4,0.6,0.7,0.8c0.3,0.2,0.6,0.3,1,0.4c0.4,0.1,0.8,0.1,1.2,0c0.4,0,0.8-0.1,1.2-0.2c0.9-0.2,1.7-0.6,2.5-1.1
			c0.7-0.5,1.4-1.1,1.9-1.7c-0.9-0.3-1.6-0.7-2.3-1.2c-0.7-0.5-1.3-1.1-1.7-1.8c-0.4-0.7-0.8-1.4-1-2.1
			C-303,286.5-303,285.7-302.9,284.9z M-296.4,282.2c-0.5,0-0.9,0.2-1.2,0.6c-0.3,0.3-0.5,0.7-0.6,1.1c-0.3,0.9-0.5,1.8-0.4,2.7
			c0,0.7,0.3,1.4,0.6,2.1c0.3,0.7,0.9,1.3,1.6,1.7c0.4-0.7,0.7-1.5,1-2.2c0.3-0.8,0.4-1.5,0.5-2.3c0-0.2,0-0.6,0.1-1
			c0-0.4,0-0.9-0.1-1.3s-0.2-0.8-0.5-1C-295.6,282.3-295.9,282.2-296.4,282.2z"/>
		<path id="XMLID_93_" class="st2" d="M-290.1,298.4c-0.4-0.1-0.7-0.2-1-0.3c-0.3-0.2-0.6-0.4-0.7-0.7c-0.1-0.2-0.2-0.4-0.3-0.7
			c-0.1-0.3-0.1-0.6,0.1-0.7h-0.1c0.1-0.9,0.3-1.7,0.6-2.5s0.5-1.6,0.7-2.5c0.6-2,1.2-4,1.6-6c0.5-2,1-4,1.7-6
			c0.4-1.2,0.8-2.4,1.2-3.6c0.4-1.2,0.9-2.4,1.4-3.5c0.4-1,0.9-1.9,1.4-2.8c0.5-0.9,1.2-1.7,2-2.5c0.4-0.4,0.9-0.7,1.3-1.1
			c0.5-0.3,1-0.6,1.7-0.7c0.5-0.1,0.9-0.1,1.4,0.1c0.4,0.1,0.8,0.4,1,0.8c0.2,0.5,0.3,1,0.3,1.6c-0.1,0.6-0.1,1.1-0.2,1.6
			c-0.1,0.4-0.2,0.8-0.3,1.2s-0.3,0.7-0.4,1.1c-0.7,2.1-1.6,4.2-2.8,6.2c-0.6,1-1.2,2-1.8,2.9c-0.7,0.9-1.3,1.9-1.9,2.9
			c0.5-0.6,1.1-1.2,1.7-1.7c0.4-0.4,0.9-0.7,1.4-1.1c0.5-0.3,1.1-0.6,1.6-0.8c0.6-0.2,1.2-0.3,1.8-0.4c0.6,0,1.3,0,1.9,0.2
			c0.5,0.2,1,0.4,1.4,0.8c0.4,0.3,0.7,0.7,1,1.1c0.3,0.4,0.4,0.9,0.5,1.3c0.1,0.5,0,0.9-0.1,1.4c-0.3,1-0.8,1.9-1.5,2.6
			c-0.7,0.8-1.5,1.5-2.4,2.2c-0.4,0.3-0.9,0.7-1.5,1c-0.6,0.3-1.1,0.6-1.8,0.9c-0.6,0.2-1.2,0.4-1.9,0.5c-0.6,0.1-1.3,0.1-1.9,0.1
			c0.4,0.3,0.8,0.6,1.2,0.9c0.4,0.3,0.8,0.6,1.2,0.8c0.5,0.3,1,0.6,1.6,0.8c0.6,0.3,1.2,0.4,1.8,0.4c0.5,0,1-0.1,1.4-0.1
			c0.5-0.1,0.9-0.2,1.3-0.3c0.6-0.2,1.2-0.6,1.8-0.9c0.5-0.4,1-0.8,1.5-1.2c0.5-0.4,1-0.9,1.5-1.3c0.5-0.4,1-0.9,1.5-1.4
			c0.1-0.1,0.2-0.2,0.3-0.3c0.1-0.1,0.2-0.1,0.4-0.1c0.1,0,0.2,0.1,0.3,0.2c0.1,0.1,0.1,0.2,0.1,0.3c0,0.1-0.1,0.3-0.2,0.4
			s-0.2,0.3-0.2,0.4l-0.4,0.8c-0.3,0.5-0.7,1-1,1.6c-0.3,0.5-0.7,1-1.1,1.6c-0.4,0.5-0.7,0.9-1.2,1.4c-0.4,0.4-0.8,0.9-1.3,1.3
			c-0.4,0.4-0.9,0.8-1.5,1.1c-0.5,0.3-1.2,0.5-1.8,0.7c-0.6,0.1-1.3,0.1-1.9,0c-0.6-0.1-1.3-0.3-1.9-0.5c-0.6-0.2-1.1-0.6-1.7-0.9
			c-0.5-0.4-1-0.8-1.3-1.2c-0.9-1-1.5-2-1.9-3c-0.1-0.3-0.2-0.6-0.3-0.9c-0.1-0.3-0.1-0.6-0.1-0.9c0-0.1,0-0.2-0.1-0.3
			c0-0.1,0-0.2,0.1-0.2c0.1-0.1,0.1-0.1,0.2-0.1c0.1,0,0.2,0,0.3,0.1c0.6,0.2,1.3,0.3,2,0.1c0.7-0.2,1.3-0.4,1.8-0.7
			c0.5-0.3,1-0.6,1.5-1c0.4-0.4,0.9-0.8,1.2-1.2c0.6-0.8,1.1-1.6,1.5-2.5c0-0.1,0.1-0.3,0.2-0.5s0.1-0.4,0.1-0.6
			c0-0.2,0-0.4-0.1-0.5c0-0.2-0.1-0.3-0.3-0.4h0.1c0,0-0.1,0-0.3,0c-0.1,0-0.3,0.1-0.4,0.1c-0.1,0-0.3,0.1-0.4,0.2
			c-0.1,0.1-0.2,0.1-0.2,0.1c-0.2,0.1-0.5,0.2-0.7,0.3c-0.2,0.1-0.4,0.3-0.6,0.4c-0.4,0.2-0.8,0.5-1.2,0.7c-0.4,0.3-0.7,0.5-1.1,0.8
			c-0.3,0.3-0.7,0.6-1,0.8c-0.3,0.3-0.7,0.6-1,0.9l-1.2,1.2c-0.1,0.1-0.1,0.2-0.2,0.3c-0.1,0.1-0.1,0.2-0.3,0.2
			c-0.1,0.1-0.1,0.2-0.1,0.3c0,0.1,0,0.2-0.1,0.3c-0.2,1-0.5,1.9-0.8,2.9s-0.6,1.9-0.9,2.9c-0.1,0.4-0.2,0.8-0.3,1.2
			c-0.1,0.4-0.3,0.7-0.6,1c-0.3,0.3-0.6,0.5-1.1,0.6C-289.2,298.4-289.7,298.4-290.1,298.4z M-282.5,278c0.9-0.9,1.6-1.9,2.3-2.9
			c0.7-1,1.2-2,1.8-3.1c0.4-0.9,0.8-1.8,1.1-2.8c0.1-0.3,0.1-0.5,0.2-0.8c0-0.3,0-0.5,0-0.8c0-0.3,0-0.6-0.1-0.9
			c0,0-0.1-0.1-0.1-0.3c-0.1-0.2-0.1-0.2-0.2-0.2v0.1c0,0,0,0,0,0s0,0,0,0c-0.1,0-0.2,0.1-0.3,0.1c-0.1,0-0.1,0.1-0.2,0.1
			c-0.3,0.2-0.5,0.4-0.6,0.7c-0.2,0.3-0.3,0.5-0.4,0.8c-0.2,0.5-0.4,0.9-0.6,1.4c-0.2,0.5-0.4,0.9-0.6,1.4c-0.4,1-0.7,1.9-1,2.9
			c-0.3,1-0.6,1.9-0.9,2.9L-282.5,278z"/>
		<path id="XMLID_91_" class="st2" d="M-268.7,294c-0.1-0.2-0.1-0.5-0.1-0.7c-0.1-1.2-0.1-2.3,0.2-3.5s0.6-2.3,1.1-3.5
			c0.5-1,1.1-2.1,1.8-3.1s1.5-1.9,2.6-2.6c1.1-0.7,2.3-1.2,3.6-1.3c1.3-0.1,2.6,0.1,3.9,0.7c0.4,0.2,0.8,0.4,1.3,0.7
			c0.4,0.3,0.8,0.6,1.1,0.9c0.3,0.4,0.4,0.8,0.4,1.2c0,0.5-0.2,0.9-0.5,1.2c-0.3,0.3-0.7,0.6-1.3,0.7c-0.5,0.1-1,0.1-1.5,0
			c-0.5-0.1-0.9-0.3-1.1-0.6c-0.3-0.3-0.6-0.6-1-0.8c-0.3-0.1-0.5-0.2-0.8-0.2c-0.3,0-0.5,0.1-0.8,0.1c-0.3,0.1-0.5,0.2-0.7,0.4
			c-0.2,0.1-0.4,0.3-0.6,0.4c-0.5,0.4-0.9,0.8-1.3,1.3c-0.4,0.4-0.7,0.9-1,1.4c-0.6,1-1.2,2.1-1.6,3.3c-0.4,1.2-0.6,2.3-0.6,3.5
			c0,0.2,0,0.3,0.1,0.5c0,0.2,0.1,0.4,0.2,0.5c0.1,0.2,0.2,0.3,0.3,0.4c0.1,0.1,0.3,0.2,0.5,0.2c0.2,0,0.5,0,0.7-0.1
			c0.2-0.1,0.4-0.3,0.6-0.4c0.2-0.2,0.5-0.4,0.7-0.6c0.2-0.2,0.4-0.4,0.6-0.6c0.4-0.5,0.8-1,1.1-1.5c0.3-0.5,0.7-1.1,1-1.6l0.9-1.8
			c0.1-0.2,0.2-0.5,0.3-0.8c0.1-0.3,0.1-0.5,0.2-0.8c0.1-0.4,0.3-0.7,0.5-1c0.2-0.3,0.5-0.6,0.9-0.7c0.5-0.2,1-0.3,1.5-0.3
			c0.5,0,1,0.2,1.4,0.5c0.4,0.3,0.6,0.6,0.8,1c0.1,0.4,0.1,0.8,0,1.2c-0.2,0.4-0.3,0.9-0.5,1.3c-0.2,0.4-0.3,0.8-0.5,1.3
			c-0.1,0.2-0.2,0.6-0.4,1.2c-0.2,0.6-0.3,1.1-0.4,1.7c-0.1,0.6,0,1,0.1,1.5c0.1,0.4,0.5,0.6,1.1,0.6h0c0.2,0,0.4,0,0.6-0.1
			c0.3-0.1,0.4-0.3,0.6-0.4c0.4-0.3,0.9-0.7,1.3-1.2c0.4-0.4,0.8-0.8,1.1-1.2c0.3-0.4,0.7-0.9,1-1.3c0.2-0.3,0.5-0.6,0.7-0.9
			c0.2-0.3,0.4-0.6,0.6-1c0.1-0.2,0.3-0.3,0.5-0.3s0.4,0,0.5,0.2c0.1,0.1,0.2,0.2,0.1,0.3c0,0.1-0.1,0.3-0.1,0.4
			c-0.4,1-0.8,1.9-1.3,2.9c-0.5,0.9-1,1.8-1.7,2.7c-0.3,0.4-0.7,0.9-1.2,1.3c-0.4,0.4-1,0.7-1.5,1c-0.4,0.2-0.8,0.3-1.2,0.3
			s-0.9,0.1-1.3,0c-0.7-0.1-1.3-0.3-1.9-0.6c-0.5-0.3-0.9-0.7-1.3-1.2c-0.3-0.4-0.6-1-0.8-1.5c-0.2-0.6-0.3-1.1-0.3-1.6
			c-0.2,0.4-0.5,0.9-0.8,1.4c-0.3,0.5-0.7,0.9-1.1,1.4c-0.4,0.4-0.9,0.8-1.3,1.1c-0.5,0.3-1.1,0.5-1.7,0.6c-0.6,0.1-1.1,0-1.6-0.1
			c-0.5-0.2-0.9-0.4-1.2-0.7c-0.3-0.3-0.6-0.7-0.9-1.1C-268.4,294.9-268.6,294.4-268.7,294z"/>
	</g>
	<g id="XMLID_84_">
		<path id="XMLID_89_" class="st2" d="M-264.2,272.2l16.1,4c-0.1,0.3-0.1,0.7-0.3,1.1l-16.2-4.2
			C-264.5,272.8-264.3,272.5-264.2,272.2z"/>
		<path id="XMLID_86_" class="st2" d="M-248.7,271.3c-0.4-0.8-4.4-3.3-9.6-3.2c-3.2,0-4.9,2.1-5.7,3.7l16,4
			C-247.6,273.1-248.4,272-248.7,271.3z M-256.4,272.3l-1.5-1l-1.4,1.1l0.6-1.5l-1.5-0.7l1.9-0.1l0.4-1.4l0.5,1.2l1.7,0.1l-1.3,0.8
			L-256.4,272.3z"/>
		<path id="XMLID_85_" class="st2" d="M-240.7,283.9c0,0-0.5,3.4-8.7,0.4c0,0,1-5.4-6.5-6.9c0,0-8.2-2-9.9,2.5c0,0-8.1-1.4-7.6-5.3
			c0,0-0.1-2.2,8.7-1c0,0,0,0,0-0.1l16.2,4.2c0,0.1,0,0.1,0,0.1C-248.5,277.8-240.5,279.9-240.7,283.9z"/>
	</g>
</g>
</svg>
